{"title":"Run Baby Run 2012 BRRip 720p x264 6ch AC3 ESubs - ViZNU [P2PDL]","uid":8015889,"size":1496147806,"categoryP":"video","categoryS":"hd___movies","magnet":"?xt=urn:btih:464593cdc198e788ec2d5a55f6ce2c54f6fe05d2&amp;dn=Run+Baby+Run+2012+BRRip+720p+x264+6ch+AC3+ESubs+-+ViZNU+%5BP2PDL%5D&amp;tr=udp%3A%2F%2Ftracker.openbittorrent.com%3A80&amp;tr=udp%3A%2F%2Fopen.demonii.com%3A1337&amp;tr=udp%3A%2F%2Ftracker.coppersurfer.tk%3A6969&amp;tr=udp%3A%2F%2Fexodus.desync.com%3A6969","seeders":0,"leechers":1,"uploader":"ValidusVyto","files":-1,"time":1358101503,"description":"_________________________  Visit us at _________________________\n  &lt;a href=&quot;\nhttp://p2pdl.com&quot; rel=&quot;nofollow&quot; target=&quot;_NEW&quot;&gt;\nhttp://p2pdl.com&lt;/a&gt;  ____________________________ &lt;a href=&quot; http://p2pdl.com&quot; rel=&quot;nofollow&quot; target=&quot;_NEW&quot;&gt; http://p2pdl.com&lt;/a&gt;\n\n &lt;a href=&quot;\nhttp://www.shotpix.com/images/70118065352614545761.jpg&quot; rel=&quot;nofollow&quot; target=&quot;_NEW&quot;&gt;\nhttp://www.shotpix.com/images/70118065352614545761.jpg&lt;/a&gt;\n\n\nRun Baby Run 2012 BRRip 720p x264 6ch AC3 ESubs - ViZNU\n\n\t\t\t\t\nGenre: Comedy | Thriller \nThe film which has news media as the backdrop, traces the relationship between two people and their\nprofessional conflicts. \nDirector:  Joshiy Milan Jaleel\nStars: Mohanlal, Amala Paul and Biju Menon.\nRated: N/a &lt;a href=&quot;\nhttp://www.imdb.com/title/tt2357208/&quot; rel=&quot;nofollow&quot; target=&quot;_NEW&quot;&gt;\nhttp://www.imdb.com/title/tt2357208/&lt;/a&gt;\n\nGeneral\nComplete name                  : Run Baby Run 2012 BRRip 720p x264 6ch AC3 ESubs - ViZNU\nFormat                         : MPEG-4\nFormat profile                 : Base Media\nCodec ID                       : isom\nFile size                      : 1.37 GiB\nDuration                       : 2h 20mn\nOverall bit rate               : 1 403 Kbps\nSource                         :  Blu-Ray.720p.[DDR](Thanks)\n\nVideo\nID                             : 1\nFormat                         : AVC\nFormat/Info                    : Advanced Video Codec\nDuration                       : 2h 20mn\nBit rate                       : 1 016 Kbps\nWidth                          : 1 280 pixels\nHeight                         : 544 pixels\nDisplay aspect ratio           : 2.35:1\nFrame rate mode                : Constant\nFrame rate                     : 23.976 fps\nStream size                    : 1 019 MiB (72%)\nWriting library                : x264 core 129 r2230\n\nAudio\nID                             : 2\nFormat                         : AC-3\nDuration                       : 2h 20mn\nBit rate mode                  : Constant\nBit rate                       : 384 Kbps\nChannel(s)                     : 6 channels\nChannel positions              : Front: L C R, Side: L R, LFE\nSampling rate                  : 44.1 KHz\nStream size                    : 385 MiB (27%)\nLanguage                       : Malayalam\n\nSubtitle                       : Yes(English)\n\nScreens:\n &lt;a href=&quot;\nhttp://www.shotpix.com/images/23696576975084486158.png&quot; rel=&quot;nofollow&quot; target=&quot;_NEW&quot;&gt;\nhttp://www.shotpix.com/images/23696576975084486158.png&lt;/a&gt; &lt;a href=&quot;\nhttp://www.shotpix.com/images/84547678774550131129.png&quot; rel=&quot;nofollow&quot; target=&quot;_NEW&quot;&gt;\nhttp://www.shotpix.com/images/84547678774550131129.png&lt;/a&gt; &lt;a href=&quot;\nhttp://www.shotpix.com/images/25788017686451079682.png&quot; rel=&quot;nofollow&quot; target=&quot;_NEW&quot;&gt;\nhttp://www.shotpix.com/images/25788017686451079682.png&lt;/a&gt; &lt;a href=&quot;\nhttp://www.shotpix.com/images/51379431949775440115.png&quot; rel=&quot;nofollow&quot; target=&quot;_NEW&quot;&gt;\nhttp://www.shotpix.com/images/51379431949775440115.png&lt;/a&gt; &lt;a href=&quot;\nhttp://www.shotpix.com/images/02211915296903230130.png&quot; rel=&quot;nofollow&quot; target=&quot;_NEW&quot;&gt;\nhttp://www.shotpix.com/images/02211915296903230130.png&lt;/a&gt; &lt;a href=&quot;\nhttp://www.shotpix.com/images/97172385105415917425.png&quot; rel=&quot;nofollow&quot; target=&quot;_NEW&quot;&gt;\nhttp://www.shotpix.com/images/97172385105415917425.png&lt;/a&gt;\n\n\n----------------------------------------------------------------------------------------------------\n\n\nRecommend to you to use latest version of VLC player. Install K-Lite Codec Pack or shark007 codecs\nin case of any kind of problem in playback (For non-VLC Media Player users). Alternatively, install\nCore AVC codecs, the fastest decoder that there is coupled with Community Center Codec Pack and play\non Windows Media Player Classic. Check sample to be sure.\nEnjoy!\n\nGreets to: Vitamin_X, a2zRG, srkfan, MgB, Stumpie1971, Sheychi, StyLishSaLH and, Masta staff members at\nExtraTorrent, TPB,KAT, 1337x, PublicHD, Ahashare, BTScene, SilverTorrent, LimeTorrents, TorrentMafia,\nP2PDL, and all others.\n\nEncoder Notes: Looking For Early Access To Anything You Can Provide DVDScr, R5, DVDR, BluRay, Direct\nAudio, Early Music Releases, Seedboxes, Dedicated Servers anything u can provide, Advance / Promo CDs/\nDVDs. If You Got anything to offer contact me at &quot;&lt;a class=&quot;__cf_email__&quot; href=&quot;/cdn-cgi/l/email-protection&quot; data-cfemail=&quot;04747663446c71776c2a676b69&quot;&gt;[email&amp;#160;protected]&lt;/a&gt;&lt;script cf-hash='f9e31' type=&quot;text/javascript&quot;&gt;\n/* &lt;![CDATA[ */!function(){try{var t=&quot;currentScript&quot;in document?document.currentScript:function(){for(var t=document.getElementsByTagName(&quot;script&quot;),e=t.length;e--;)if(t[e].getAttribute(&quot;cf-hash&quot;))return t[e]}();if(t&amp;&amp;t.previousSibling){var e,r,n,i,c=t.previousSibling,a=c.getAttribute(&quot;data-cfemail&quot;);if(a){for(e=&quot;&quot;,r=parseInt(a.substr(0,2),16),n=2;a.length-n;n+=2)i=parseInt(a.substr(n,2),16)^r,e+=String.fromCharCode(i);e=document.createTextNode(e),c.parentNode.replaceChild(e,c)}}}catch(u){}}();/* ]]&gt; */&lt;/script&gt;&quot;.\n\nFacebook Fan Page: www . facebook . com / p2pdl","torrent":{"xt":"urn:btih:464593cdc198e788ec2d5a55f6ce2c54f6fe05d2","amp;dn":"Run+Baby+Run+2012+BRRip+720p+x264+6ch+AC3+ESubs+-+ViZNU+%5BP2PDL%5D","amp;tr":["udp%3A%2F%2Ftracker.openbittorrent.com%3A80","udp%3A%2F%2Fopen.demonii.com%3A1337","udp%3A%2F%2Ftracker.coppersurfer.tk%3A6969","udp%3A%2F%2Fexodus.desync.com%3A6969"],"infoHash":"464593cdc198e788ec2d5a55f6ce2c54f6fe05d2","infoHashBuffer":{"type":"Buffer","data":[70,69,147,205,193,152,231,136,236,45,90,85,246,206,44,84,246,254,5,210]},"announce":[],"urlList":[]}}